<?xml version="1.0" standalone="no"?>
 <!DOCTYPE svg PUBLIC "-//W3C//DTD SVG 1.1//EN" 
 "http://www.w3.org/Graphics/SVG/1.1/DTD/svg11.dtd"> 
<svg
  xmlns:svg="http://www.w3.org/2000/svg"
  xmlns="http://www.w3.org/2000/svg"
  xmlns:xlink="http://www.w3.org/1999/xlink"
  version="1.1"
  width="297.0022mm" height="210.0072mm" viewBox="0.0000 0.0000 297.0022 210.0072">
<title>SVG Image created as VL53L0X-F_Paste.svg date 2025/05/19 11:28:08 </title>
  <desc>Image generated by PCBNEW </desc>
<g style="fill:#000000; fill-opacity:1.0000;stroke:#000000; stroke-opacity:1.0000;
stroke-linecap:round; stroke-linejoin:round;"
 transform="translate(0 0) scale(1 1)">
<path style="fill:#B4A09A; fill-opacity:0.9020; stroke:none;fill-rule:evenodd;"
d="M 101.1500,57.0750
101.1595,57.0272
101.1866,56.9866
101.2272,56.9595
101.2750,56.9500
101.5250,56.9500
101.5728,56.9595
101.6134,56.9866
101.6405,57.0272
101.6500,57.0750
101.6500,59.3250
101.6405,59.3728
101.6134,59.4134
101.5728,59.4405
101.5250,59.4500
101.2750,59.4500
101.2272,59.4405
101.1866,59.4134
101.1595,59.3728
101.1500,59.3250
Z" /> 
<path style="fill:#B4A09A; fill-opacity:0.9020; stroke:none;fill-rule:evenodd;"
d="M 101.9500,57.0750
101.9595,57.0272
101.9866,56.9866
102.0272,56.9595
102.0750,56.9500
102.3250,56.9500
102.3728,56.9595
102.4134,56.9866
102.4405,57.0272
102.4500,57.0750
102.4500,59.3250
102.4405,59.3728
102.4134,59.4134
102.3728,59.4405
102.3250,59.4500
102.0750,59.4500
102.0272,59.4405
101.9866,59.4134
101.9595,59.3728
101.9500,59.3250
Z" /> 
<path style="fill:#B4A09A; fill-opacity:0.9020; stroke:none;fill-rule:evenodd;"
d="M 102.7500,57.0750
102.7595,57.0272
102.7866,56.9866
102.8272,56.9595
102.8750,56.9500
103.1250,56.9500
103.1728,56.9595
103.2134,56.9866
103.2405,57.0272
103.2500,57.0750
103.2500,59.3250
103.2405,59.3728
103.2134,59.4134
103.1728,59.4405
103.1250,59.4500
102.8750,59.4500
102.8272,59.4405
102.7866,59.4134
102.7595,59.3728
102.7500,59.3250
Z" /> 
<path style="fill:#B4A09A; fill-opacity:0.9020; stroke:none;fill-rule:evenodd;"
d="M 103.5500,57.0750
103.5595,57.0272
103.5866,56.9866
103.6272,56.9595
103.6750,56.9500
103.9250,56.9500
103.9728,56.9595
104.0134,56.9866
104.0405,57.0272
104.0500,57.0750
104.0500,59.3250
104.0405,59.3728
104.0134,59.4134
103.9728,59.4405
103.9250,59.4500
103.6750,59.4500
103.6272,59.4405
103.5866,59.4134
103.5595,59.3728
103.5500,59.3250
Z" /> 
<path style="fill:#B4A09A; fill-opacity:0.9020; stroke:none;fill-rule:evenodd;"
d="M 104.3500,57.0750
104.3595,57.0272
104.3866,56.9866
104.4272,56.9595
104.4750,56.9500
104.7250,56.9500
104.7728,56.9595
104.8134,56.9866
104.8405,57.0272
104.8500,57.0750
104.8500,59.3250
104.8405,59.3728
104.8134,59.4134
104.7728,59.4405
104.7250,59.4500
104.4750,59.4500
104.4272,59.4405
104.3866,59.4134
104.3595,59.3728
104.3500,59.3250
Z" /> 
<path style="fill:#B4A09A; fill-opacity:0.9020; stroke:none;fill-rule:evenodd;"
d="M 104.3500,59.8750
104.3595,59.8272
104.3866,59.7866
104.4272,59.7595
104.4750,59.7500
106.7250,59.7500
106.7728,59.7595
106.8134,59.7866
106.8405,59.8272
106.8500,59.8750
106.8500,60.1250
106.8405,60.1728
106.8134,60.2134
106.7728,60.2405
106.7250,60.2500
104.4750,60.2500
104.4272,60.2405
104.3866,60.2134
104.3595,60.1728
104.3500,60.1250
Z" /> 
<path style="fill:#B4A09A; fill-opacity:0.9020; stroke:none;fill-rule:evenodd;"
d="M 104.3500,60.6750
104.3595,60.6272
104.3866,60.5866
104.4272,60.5595
104.4750,60.5500
104.7250,60.5500
104.7728,60.5595
104.8134,60.5866
104.8405,60.6272
104.8500,60.6750
104.8500,62.9250
104.8405,62.9728
104.8134,63.0134
104.7728,63.0405
104.7250,63.0500
104.4750,63.0500
104.4272,63.0405
104.3866,63.0134
104.3595,62.9728
104.3500,62.9250
Z" /> 
<path style="fill:#B4A09A; fill-opacity:0.9020; stroke:none;fill-rule:evenodd;"
d="M 103.5500,60.6750
103.5595,60.6272
103.5866,60.5866
103.6272,60.5595
103.6750,60.5500
103.9250,60.5500
103.9728,60.5595
104.0134,60.5866
104.0405,60.6272
104.0500,60.6750
104.0500,62.9250
104.0405,62.9728
104.0134,63.0134
103.9728,63.0405
103.9250,63.0500
103.6750,63.0500
103.6272,63.0405
103.5866,63.0134
103.5595,62.9728
103.5500,62.9250
Z" /> 
<path style="fill:#B4A09A; fill-opacity:0.9020; stroke:none;fill-rule:evenodd;"
d="M 102.7500,60.6750
102.7595,60.6272
102.7866,60.5866
102.8272,60.5595
102.8750,60.5500
103.1250,60.5500
103.1728,60.5595
103.2134,60.5866
103.2405,60.6272
103.2500,60.6750
103.2500,62.9250
103.2405,62.9728
103.2134,63.0134
103.1728,63.0405
103.1250,63.0500
102.8750,63.0500
102.8272,63.0405
102.7866,63.0134
102.7595,62.9728
102.7500,62.9250
Z" /> 
<path style="fill:#B4A09A; fill-opacity:0.9020; stroke:none;fill-rule:evenodd;"
d="M 101.9500,60.6750
101.9595,60.6272
101.9866,60.5866
102.0272,60.5595
102.0750,60.5500
102.3250,60.5500
102.3728,60.5595
102.4134,60.5866
102.4405,60.6272
102.4500,60.6750
102.4500,62.9250
102.4405,62.9728
102.4134,63.0134
102.3728,63.0405
102.3250,63.0500
102.0750,63.0500
102.0272,63.0405
101.9866,63.0134
101.9595,62.9728
101.9500,62.9250
Z" /> 
<path style="fill:#B4A09A; fill-opacity:0.9020; stroke:none;fill-rule:evenodd;"
d="M 101.1500,60.6750
101.1595,60.6272
101.1866,60.5866
101.2272,60.5595
101.2750,60.5500
101.5250,60.5500
101.5728,60.5595
101.6134,60.5866
101.6405,60.6272
101.6500,60.6750
101.6500,62.9250
101.6405,62.9728
101.6134,63.0134
101.5728,63.0405
101.5250,63.0500
101.2750,63.0500
101.2272,63.0405
101.1866,63.0134
101.1595,62.9728
101.1500,62.9250
Z" /> 
<path style="fill:#B4A09A; fill-opacity:0.9020; stroke:none;fill-rule:evenodd;"
d="M 99.1500,59.8750
99.1595,59.8272
99.1866,59.7866
99.2272,59.7595
99.2750,59.7500
101.5250,59.7500
101.5728,59.7595
101.6134,59.7866
101.6405,59.8272
101.6500,59.8750
101.6500,60.1250
101.6405,60.1728
101.6134,60.2134
101.5728,60.2405
101.5250,60.2500
99.2750,60.2500
99.2272,60.2405
99.1866,60.2134
99.1595,60.1728
99.1500,60.1250
Z" /> 
<path style="fill:#B4A09A; fill-opacity:0.9020; stroke:none;fill-rule:evenodd;"
d="M 106.3750,56.0250
106.2793,56.0060
106.1982,55.9518
106.1440,55.8707
106.1250,55.7750
106.1250,55.1500
106.1440,55.0543
106.1982,54.9732
106.2793,54.9190
106.3750,54.9000
107.6250,54.9000
107.7207,54.9190
107.8018,54.9732
107.8560,55.0543
107.8750,55.1500
107.8750,55.7750
107.8560,55.8707
107.8018,55.9518
107.7207,56.0060
107.6250,56.0250
Z" /> 
<path style="fill:#B4A09A; fill-opacity:0.9020; stroke:none;fill-rule:evenodd;"
d="M 106.3750,53.1000
106.2793,53.0810
106.1982,53.0268
106.1440,52.9457
106.1250,52.8500
106.1250,52.2250
106.1440,52.1293
106.1982,52.0482
106.2793,51.9940
106.3750,51.9750
107.6250,51.9750
107.7207,51.9940
107.8018,52.0482
107.8560,52.1293
107.8750,52.2250
107.8750,52.8500
107.8560,52.9457
107.8018,53.0268
107.7207,53.0810
107.6250,53.1000
Z" /> 
<path style="fill:#B4A09A; fill-opacity:0.9020; stroke:none;fill-rule:evenodd;"
d="M 99.9500,51.3500
99.9690,51.2543
100.0232,51.1732
100.1043,51.1190
100.2000,51.1000
100.8500,51.1000
100.9457,51.1190
101.0268,51.1732
101.0810,51.2543
101.1000,51.3500
101.1000,52.6500
101.0810,52.7457
101.0268,52.8268
100.9457,52.8810
100.8500,52.9000
100.2000,52.9000
100.1043,52.8810
100.0232,52.8268
99.9690,52.7457
99.9500,52.6500
Z" /> 
<path style="fill:#B4A09A; fill-opacity:0.9020; stroke:none;fill-rule:evenodd;"
d="M 102.9000,51.3500
102.9190,51.2543
102.9732,51.1732
103.0543,51.1190
103.1500,51.1000
103.8000,51.1000
103.8957,51.1190
103.9768,51.1732
104.0310,51.2543
104.0500,51.3500
104.0500,52.6500
104.0310,52.7457
103.9768,52.8268
103.8957,52.8810
103.8000,52.9000
103.1500,52.9000
103.0543,52.8810
102.9732,52.8268
102.9190,52.7457
102.9000,52.6500
Z" /> 
<path style="fill:#B4A09A; fill-opacity:0.9020; stroke:none;fill-rule:evenodd;"
d="M 109.3750,56.0250
109.2793,56.0060
109.1982,55.9518
109.1440,55.8707
109.1250,55.7750
109.1250,55.1500
109.1440,55.0543
109.1982,54.9732
109.2793,54.9190
109.3750,54.9000
110.6250,54.9000
110.7207,54.9190
110.8018,54.9732
110.8560,55.0543
110.8750,55.1500
110.8750,55.7750
110.8560,55.8707
110.8018,55.9518
110.7207,56.0060
110.6250,56.0250
Z" /> 
<path style="fill:#B4A09A; fill-opacity:0.9020; stroke:none;fill-rule:evenodd;"
d="M 109.3750,53.1000
109.2793,53.0810
109.1982,53.0268
109.1440,52.9457
109.1250,52.8500
109.1250,52.2250
109.1440,52.1293
109.1982,52.0482
109.2793,51.9940
109.3750,51.9750
110.6250,51.9750
110.7207,51.9940
110.8018,52.0482
110.8560,52.1293
110.8750,52.2250
110.8750,52.8500
110.8560,52.9457
110.8018,53.0268
110.7207,53.0810
110.6250,53.1000
Z" /> 
<path style="fill:#B4A09A; fill-opacity:0.9020; stroke:none;fill-rule:evenodd;"
d="M 109.6250,56.9750
109.7207,56.9940
109.8018,57.0482
109.8560,57.1293
109.8750,57.2250
109.8750,57.8500
109.8560,57.9457
109.8018,58.0268
109.7207,58.0810
109.6250,58.1000
108.3750,58.1000
108.2793,58.0810
108.1982,58.0268
108.1440,57.9457
108.1250,57.8500
108.1250,57.2250
108.1440,57.1293
108.1982,57.0482
108.2793,56.9940
108.3750,56.9750
Z" /> 
<path style="fill:#B4A09A; fill-opacity:0.9020; stroke:none;fill-rule:evenodd;"
d="M 109.6250,59.9000
109.7207,59.9190
109.8018,59.9732
109.8560,60.0543
109.8750,60.1500
109.8750,60.7750
109.8560,60.8707
109.8018,60.9518
109.7207,61.0060
109.6250,61.0250
108.3750,61.0250
108.2793,61.0060
108.1982,60.9518
108.1440,60.8707
108.1250,60.7750
108.1250,60.1500
108.1440,60.0543
108.1982,59.9732
108.2793,59.9190
108.3750,59.9000
Z" /> 
<path style="fill:#B4A09A; fill-opacity:0.9020; stroke:none;fill-rule:evenodd;"
d="M 112.6250,56.9750
112.7207,56.9940
112.8018,57.0482
112.8560,57.1293
112.8750,57.2250
112.8750,57.8500
112.8560,57.9457
112.8018,58.0268
112.7207,58.0810
112.6250,58.1000
111.3750,58.1000
111.2793,58.0810
111.1982,58.0268
111.1440,57.9457
111.1250,57.8500
111.1250,57.2250
111.1440,57.1293
111.1982,57.0482
111.2793,56.9940
111.3750,56.9750
Z" /> 
<path style="fill:#B4A09A; fill-opacity:0.9020; stroke:none;fill-rule:evenodd;"
d="M 112.6250,59.9000
112.7207,59.9190
112.8018,59.9732
112.8560,60.0543
112.8750,60.1500
112.8750,60.7750
112.8560,60.8707
112.8018,60.9518
112.7207,61.0060
112.6250,61.0250
111.3750,61.0250
111.2793,61.0060
111.1982,60.9518
111.1440,60.8707
111.1250,60.7750
111.1250,60.1500
111.1440,60.0543
111.1982,59.9732
111.2793,59.9190
111.3750,59.9000
Z" /> 
<path style="fill:#B4A09A; fill-opacity:0.9020; stroke:none;fill-rule:evenodd;"
d="M 99.9500,54.3500
99.9690,54.2543
100.0232,54.1732
100.1043,54.1190
100.2000,54.1000
100.8500,54.1000
100.9457,54.1190
101.0268,54.1732
101.0810,54.2543
101.1000,54.3500
101.1000,55.6500
101.0810,55.7457
101.0268,55.8268
100.9457,55.8810
100.8500,55.9000
100.2000,55.9000
100.1043,55.8810
100.0232,55.8268
99.9690,55.7457
99.9500,55.6500
Z" /> 
<path style="fill:#B4A09A; fill-opacity:0.9020; stroke:none;fill-rule:evenodd;"
d="M 102.9000,54.3500
102.9190,54.2543
102.9732,54.1732
103.0543,54.1190
103.1500,54.1000
103.8000,54.1000
103.8957,54.1190
103.9768,54.1732
104.0310,54.2543
104.0500,54.3500
104.0500,55.6500
104.0310,55.7457
103.9768,55.8268
103.8957,55.8810
103.8000,55.9000
103.1500,55.9000
103.0543,55.8810
102.9732,55.8268
102.9190,55.7457
102.9000,55.6500
Z" /> 
<path style="fill:none; 
stroke:#D0D2CD; stroke-width:0.0500; stroke-opacity:1; 
stroke-linecap:round; stroke-linejoin:round;fill:none"
d="M 95.0000,44.0000
117.0000,44.0000
117.0000,66.0000
95.0000,66.0000
Z" /> 
</g> 
</svg>
