<?xml version="1.0" standalone="no"?>
 <!DOCTYPE svg PUBLIC "-//W3C//DTD SVG 1.1//EN" 
 "http://www.w3.org/Graphics/SVG/1.1/DTD/svg11.dtd"> 
<svg
  xmlns:svg="http://www.w3.org/2000/svg"
  xmlns="http://www.w3.org/2000/svg"
  xmlns:xlink="http://www.w3.org/1999/xlink"
  version="1.1"
  width="22.0980mm" height="22.0980mm" viewBox="0.0000 0.0000 22.0980 22.0980">
<title>SVG Image created as VL53L0X-F_Cu.svg date 2025/05/19 13:44:07 </title>
  <desc>Image generated by PCBNEW </desc>
<g style="fill:#000000; fill-opacity:1.0000;stroke:#000000; stroke-opacity:1.0000;
stroke-linecap:round; stroke-linejoin:round;"
 transform="translate(0 0) scale(1 1)">
<path style="fill:#C83434; fill-opacity:1.0000; stroke:none;fill-rule:evenodd;"
d="M 11.4250,12.0750
11.3293,12.0560
11.2482,12.0018
11.1940,11.9207
11.1750,11.8250
11.1750,11.2000
11.1940,11.1043
11.2482,11.0232
11.3293,10.9690
11.4250,10.9500
12.6750,10.9500
12.7707,10.9690
12.8518,11.0232
12.9060,11.1043
12.9250,11.2000
12.9250,11.8250
12.9060,11.9207
12.8518,12.0018
12.7707,12.0560
12.6750,12.0750
Z" /> 
<path style="fill:#C83434; fill-opacity:1.0000; stroke:none;fill-rule:evenodd;"
d="M 11.4250,9.1500
11.3293,9.1310
11.2482,9.0768
11.1940,8.9957
11.1750,8.9000
11.1750,8.2750
11.1940,8.1793
11.2482,8.0982
11.3293,8.0440
11.4250,8.0250
12.6750,8.0250
12.7707,8.0440
12.8518,8.0982
12.9060,8.1793
12.9250,8.2750
12.9250,8.9000
12.9060,8.9957
12.8518,9.0768
12.7707,9.1310
12.6750,9.1500
Z" /> 
<path style="fill:#C83434; fill-opacity:1.0000; stroke:none;fill-rule:evenodd;"
d="M 5.0000,7.4000
5.0190,7.3043
5.0732,7.2232
5.1543,7.1690
5.2500,7.1500
5.9000,7.1500
5.9957,7.1690
6.0768,7.2232
6.1310,7.3043
6.1500,7.4000
6.1500,8.7000
6.1310,8.7957
6.0768,8.8768
5.9957,8.9310
5.9000,8.9500
5.2500,8.9500
5.1543,8.9310
5.0732,8.8768
5.0190,8.7957
5.0000,8.7000
Z" /> 
<path style="fill:#C83434; fill-opacity:1.0000; stroke:none;fill-rule:evenodd;"
d="M 7.9500,7.4000
7.9690,7.3043
8.0232,7.2232
8.1043,7.1690
8.2000,7.1500
8.8500,7.1500
8.9457,7.1690
9.0268,7.2232
9.0810,7.3043
9.1000,7.4000
9.1000,8.7000
9.0810,8.7957
9.0268,8.8768
8.9457,8.9310
8.8500,8.9500
8.2000,8.9500
8.1043,8.9310
8.0232,8.8768
7.9690,8.7957
7.9500,8.7000
Z" /> 
<path style="fill:#C83434; fill-opacity:1.0000; stroke:none;fill-rule:evenodd;"
d="M 14.4250,12.0750
14.3293,12.0560
14.2482,12.0018
14.1940,11.9207
14.1750,11.8250
14.1750,11.2000
14.1940,11.1043
14.2482,11.0232
14.3293,10.9690
14.4250,10.9500
15.6750,10.9500
15.7707,10.9690
15.8518,11.0232
15.9060,11.1043
15.9250,11.2000
15.9250,11.8250
15.9060,11.9207
15.8518,12.0018
15.7707,12.0560
15.6750,12.0750
Z" /> 
<path style="fill:#C83434; fill-opacity:1.0000; stroke:none;fill-rule:evenodd;"
d="M 14.4250,9.1500
14.3293,9.1310
14.2482,9.0768
14.1940,8.9957
14.1750,8.9000
14.1750,8.2750
14.1940,8.1793
14.2482,8.0982
14.3293,8.0440
14.4250,8.0250
15.6750,8.0250
15.7707,8.0440
15.8518,8.0982
15.9060,8.1793
15.9250,8.2750
15.9250,8.9000
15.9060,8.9957
15.8518,9.0768
15.7707,9.1310
15.6750,9.1500
Z" /> 
<path style="fill:#C83434; fill-opacity:1.0000; stroke:none;fill-rule:evenodd;"
d="M 14.6750,13.0250
14.7707,13.0440
14.8518,13.0982
14.9060,13.1793
14.9250,13.2750
14.9250,13.9000
14.9060,13.9957
14.8518,14.0768
14.7707,14.1310
14.6750,14.1500
13.4250,14.1500
13.3293,14.1310
13.2482,14.0768
13.1940,13.9957
13.1750,13.9000
13.1750,13.2750
13.1940,13.1793
13.2482,13.0982
13.3293,13.0440
13.4250,13.0250
Z" /> 
<path style="fill:#C83434; fill-opacity:1.0000; stroke:none;fill-rule:evenodd;"
d="M 14.6750,15.9500
14.7707,15.9690
14.8518,16.0232
14.9060,16.1043
14.9250,16.2000
14.9250,16.8250
14.9060,16.9207
14.8518,17.0018
14.7707,17.0560
14.6750,17.0750
13.4250,17.0750
13.3293,17.0560
13.2482,17.0018
13.1940,16.9207
13.1750,16.8250
13.1750,16.2000
13.1940,16.1043
13.2482,16.0232
13.3293,15.9690
13.4250,15.9500
Z" /> 
<path style="fill:#C83434; fill-opacity:1.0000; stroke:none;fill-rule:evenodd;"
d="M 17.6750,13.0250
17.7707,13.0440
17.8518,13.0982
17.9060,13.1793
17.9250,13.2750
17.9250,13.9000
17.9060,13.9957
17.8518,14.0768
17.7707,14.1310
17.6750,14.1500
16.4250,14.1500
16.3293,14.1310
16.2482,14.0768
16.1940,13.9957
16.1750,13.9000
16.1750,13.2750
16.1940,13.1793
16.2482,13.0982
16.3293,13.0440
16.4250,13.0250
Z" /> 
<path style="fill:#C83434; fill-opacity:1.0000; stroke:none;fill-rule:evenodd;"
d="M 17.6750,15.9500
17.7707,15.9690
17.8518,16.0232
17.9060,16.1043
17.9250,16.2000
17.9250,16.8250
17.9060,16.9207
17.8518,17.0018
17.7707,17.0560
17.6750,17.0750
16.4250,17.0750
16.3293,17.0560
16.2482,17.0018
16.1940,16.9207
16.1750,16.8250
16.1750,16.2000
16.1940,16.1043
16.2482,16.0232
16.3293,15.9690
16.4250,15.9500
Z" /> 
<path style="fill:#C83434; fill-opacity:1.0000; stroke:none;fill-rule:evenodd;"
d="M 6.2000,13.1250
6.2095,13.0772
6.2366,13.0366
6.2772,13.0095
6.3250,13.0000
6.5750,13.0000
6.6228,13.0095
6.6634,13.0366
6.6905,13.0772
6.7000,13.1250
6.7000,15.3750
6.6905,15.4228
6.6634,15.4634
6.6228,15.4905
6.5750,15.5000
6.3250,15.5000
6.2772,15.4905
6.2366,15.4634
6.2095,15.4228
6.2000,15.3750
Z" /> 
<path style="fill:#C83434; fill-opacity:1.0000; stroke:none;fill-rule:evenodd;"
d="M 7.0000,13.1250
7.0095,13.0772
7.0366,13.0366
7.0772,13.0095
7.1250,13.0000
7.3750,13.0000
7.4228,13.0095
7.4634,13.0366
7.4905,13.0772
7.5000,13.1250
7.5000,15.3750
7.4905,15.4228
7.4634,15.4634
7.4228,15.4905
7.3750,15.5000
7.1250,15.5000
7.0772,15.4905
7.0366,15.4634
7.0095,15.4228
7.0000,15.3750
Z" /> 
<path style="fill:#C83434; fill-opacity:1.0000; stroke:none;fill-rule:evenodd;"
d="M 7.8000,13.1250
7.8095,13.0772
7.8366,13.0366
7.8772,13.0095
7.9250,13.0000
8.1750,13.0000
8.2228,13.0095
8.2634,13.0366
8.2905,13.0772
8.3000,13.1250
8.3000,15.3750
8.2905,15.4228
8.2634,15.4634
8.2228,15.4905
8.1750,15.5000
7.9250,15.5000
7.8772,15.4905
7.8366,15.4634
7.8095,15.4228
7.8000,15.3750
Z" /> 
<path style="fill:#C83434; fill-opacity:1.0000; stroke:none;fill-rule:evenodd;"
d="M 8.6000,13.1250
8.6095,13.0772
8.6366,13.0366
8.6772,13.0095
8.7250,13.0000
8.9750,13.0000
9.0228,13.0095
9.0634,13.0366
9.0905,13.0772
9.1000,13.1250
9.1000,15.3750
9.0905,15.4228
9.0634,15.4634
9.0228,15.4905
8.9750,15.5000
8.7250,15.5000
8.6772,15.4905
8.6366,15.4634
8.6095,15.4228
8.6000,15.3750
Z" /> 
<path style="fill:#C83434; fill-opacity:1.0000; stroke:none;fill-rule:evenodd;"
d="M 9.4000,13.1250
9.4095,13.0772
9.4366,13.0366
9.4772,13.0095
9.5250,13.0000
9.7750,13.0000
9.8228,13.0095
9.8634,13.0366
9.8905,13.0772
9.9000,13.1250
9.9000,15.3750
9.8905,15.4228
9.8634,15.4634
9.8228,15.4905
9.7750,15.5000
9.5250,15.5000
9.4772,15.4905
9.4366,15.4634
9.4095,15.4228
9.4000,15.3750
Z" /> 
<path style="fill:#C83434; fill-opacity:1.0000; stroke:none;fill-rule:evenodd;"
d="M 9.4000,15.9250
9.4095,15.8772
9.4366,15.8366
9.4772,15.8095
9.5250,15.8000
11.7750,15.8000
11.8228,15.8095
11.8634,15.8366
11.8905,15.8772
11.9000,15.9250
11.9000,16.1750
11.8905,16.2228
11.8634,16.2634
11.8228,16.2905
11.7750,16.3000
9.5250,16.3000
9.4772,16.2905
9.4366,16.2634
9.4095,16.2228
9.4000,16.1750
Z" /> 
<path style="fill:#C83434; fill-opacity:1.0000; stroke:none;fill-rule:evenodd;"
d="M 9.4000,16.7250
9.4095,16.6772
9.4366,16.6366
9.4772,16.6095
9.5250,16.6000
9.7750,16.6000
9.8228,16.6095
9.8634,16.6366
9.8905,16.6772
9.9000,16.7250
9.9000,18.9750
9.8905,19.0228
9.8634,19.0634
9.8228,19.0905
9.7750,19.1000
9.5250,19.1000
9.4772,19.0905
9.4366,19.0634
9.4095,19.0228
9.4000,18.9750
Z" /> 
<path style="fill:#C83434; fill-opacity:1.0000; stroke:none;fill-rule:evenodd;"
d="M 8.6000,16.7250
8.6095,16.6772
8.6366,16.6366
8.6772,16.6095
8.7250,16.6000
8.9750,16.6000
9.0228,16.6095
9.0634,16.6366
9.0905,16.6772
9.1000,16.7250
9.1000,18.9750
9.0905,19.0228
9.0634,19.0634
9.0228,19.0905
8.9750,19.1000
8.7250,19.1000
8.6772,19.0905
8.6366,19.0634
8.6095,19.0228
8.6000,18.9750
Z" /> 
<path style="fill:#C83434; fill-opacity:1.0000; stroke:none;fill-rule:evenodd;"
d="M 7.8000,16.7250
7.8095,16.6772
7.8366,16.6366
7.8772,16.6095
7.9250,16.6000
8.1750,16.6000
8.2228,16.6095
8.2634,16.6366
8.2905,16.6772
8.3000,16.7250
8.3000,18.9750
8.2905,19.0228
8.2634,19.0634
8.2228,19.0905
8.1750,19.1000
7.9250,19.1000
7.8772,19.0905
7.8366,19.0634
7.8095,19.0228
7.8000,18.9750
Z" /> 
<path style="fill:#C83434; fill-opacity:1.0000; stroke:none;fill-rule:evenodd;"
d="M 7.0000,16.7250
7.0095,16.6772
7.0366,16.6366
7.0772,16.6095
7.1250,16.6000
7.3750,16.6000
7.4228,16.6095
7.4634,16.6366
7.4905,16.6772
7.5000,16.7250
7.5000,18.9750
7.4905,19.0228
7.4634,19.0634
7.4228,19.0905
7.3750,19.1000
7.1250,19.1000
7.0772,19.0905
7.0366,19.0634
7.0095,19.0228
7.0000,18.9750
Z" /> 
<path style="fill:#C83434; fill-opacity:1.0000; stroke:none;fill-rule:evenodd;"
d="M 6.2000,16.7250
6.2095,16.6772
6.2366,16.6366
6.2772,16.6095
6.3250,16.6000
6.5750,16.6000
6.6228,16.6095
6.6634,16.6366
6.6905,16.6772
6.7000,16.7250
6.7000,18.9750
6.6905,19.0228
6.6634,19.0634
6.6228,19.0905
6.5750,19.1000
6.3250,19.1000
6.2772,19.0905
6.2366,19.0634
6.2095,19.0228
6.2000,18.9750
Z" /> 
<path style="fill:#C83434; fill-opacity:1.0000; stroke:none;fill-rule:evenodd;"
d="M 4.2000,15.9250
4.2095,15.8772
4.2366,15.8366
4.2772,15.8095
4.3250,15.8000
6.5750,15.8000
6.6228,15.8095
6.6634,15.8366
6.6905,15.8772
6.7000,15.9250
6.7000,16.1750
6.6905,16.2228
6.6634,16.2634
6.6228,16.2905
6.5750,16.3000
4.3250,16.3000
4.2772,16.2905
4.2366,16.2634
4.2095,16.2228
4.2000,16.1750
Z" /> 
<path style="fill:#C83434; fill-opacity:1.0000; stroke:none;fill-rule:evenodd;"
d="M 5.0000,10.4000
5.0190,10.3043
5.0732,10.2232
5.1543,10.1690
5.2500,10.1500
5.9000,10.1500
5.9957,10.1690
6.0768,10.2232
6.1310,10.3043
6.1500,10.4000
6.1500,11.7000
6.1310,11.7957
6.0768,11.8768
5.9957,11.9310
5.9000,11.9500
5.2500,11.9500
5.1543,11.9310
5.0732,11.8768
5.0190,11.7957
5.0000,11.7000
Z" /> 
<path style="fill:#C83434; fill-opacity:1.0000; stroke:none;fill-rule:evenodd;"
d="M 7.9500,10.4000
7.9690,10.3043
8.0232,10.2232
8.1043,10.1690
8.2000,10.1500
8.8500,10.1500
8.9457,10.1690
9.0268,10.2232
9.0810,10.3043
9.1000,10.4000
9.1000,11.7000
9.0810,11.7957
9.0268,11.8768
8.9457,11.9310
8.8500,11.9500
8.2000,11.9500
8.1043,11.9310
8.0232,11.8768
7.9690,11.7957
7.9500,11.7000
Z" /> 
<path style="fill:#C83434; fill-opacity:1.0000; stroke:none;fill-rule:evenodd;"
d="M 3.6600,3.2000
5.3600,3.2000
5.3600,4.9000
3.6600,4.9000
Z" /> 
</g>
<g style="fill:#C83434; fill-opacity:1.0000; stroke:none;">
<circle cx="7.0500" cy="4.0500" r="0.8500" /> 
<circle cx="9.5900" cy="4.0500" r="0.8500" /> 
<circle cx="12.1300" cy="4.0500" r="0.8500" /> 
<circle cx="14.6700" cy="4.0500" r="0.8500" /> 
<circle cx="17.2100" cy="4.0500" r="0.8500" /> 
<circle cx="10.2500" cy="11.5100" r="0.2500" /> 
</g>
<g style="fill:#C83434; fill-opacity:1.0000; stroke:none;">
<circle cx="11.7875" cy="14.2500" r="0.2500" /> 
</g>
<g style="fill:none; 
stroke:#C83434; stroke-width:0.5000; stroke-opacity:1; 
stroke-linecap:round; stroke-linejoin:round;">
<path d="M17.0500 13.5125
L15.0500 11.5125
" />
<path d="M3.6890 16.4419
L3.6890 12.9360
" />
<path d="M4.5100 4.0500
L4.5100 6.9850
" />
<path d="M12.0500 11.5125
L10.2525 11.5125
" />
<path d="M3.6890 12.9360
L5.5750 11.0500
" />
<path d="M6.4500 11.9250
L5.5750 11.0500
" />
<path d="M12.0500 11.5125
L15.0500 11.5125
" />
<path d="M14.0500 13.5125
L12.0500 11.5125
" />
<path d="M6.4500 17.8500
L5.0971 17.8500
" />
<path d="M6.4500 14.2500
L6.4500 11.9250
" />
<path d="M5.0971 17.8500
L3.6890 16.4419
" />
<path d="M4.5100 6.9850
L5.5750 8.0500
" />
<path d="M5.5750 11.0500
L5.5750 8.0500
" />
<path d="M14.0500 13.5875
L14.0500 13.5125
" />
<path d="M10.2525 11.5125
L10.2500 11.5100
" />
<path d="M17.0500 13.5875
L17.0500 13.5125
" />
<path d="M7.2500 12.3250
L8.5250 11.0500
" />
<path d="M8.8500 16.0500
L8.0500 16.0500
" />
<path d="M7.2500 14.2500
L7.2500 12.3250
" />
<path d="M8.0500 16.0500
L7.2500 16.0500
" />
<path d="M10.6500 16.0500
L8.8500 16.0500
" />
<path d="M8.0500 11.5250
L8.5250 11.0500
" />
<path d="M7.0500 4.0500
L7.0500 6.5750
" />
<path d="M8.0500 14.2500
L8.0500 11.5250
" />
<path d="M8.8500 14.2500
L8.8500 16.0500
" />
<path d="M7.0500 6.5750
L8.5250 8.0500
" />
<path d="M8.5250 8.0500
L8.5250 11.0500
" />
<path d="M8.8500 11.3750
L8.5250 11.0500
" />
<path d="M7.2500 14.2500
L7.2500 16.0500
" />
<path d="M8.0500 14.2500
L8.0500 16.0500
" />
<path d="M8.8500 14.2500
L8.8500 11.3750
" />
<path d="M7.2500 16.0500
L5.4500 16.0500
" />
<path d="M18.4360 7.8160
L14.6700 4.0500
" />
<path d="M9.6500 17.8500
L15.7125 17.8500
" />
<path d="M18.4360 15.1265
L18.4360 7.8160
" />
<path d="M15.7125 17.8500
L17.0500 16.5125
" />
<path d="M17.0500 16.5125
L18.4360 15.1265
" />
<path d="M11.7875 14.2500
L14.0500 16.5125
" />
<path d="M9.6500 14.2500
L11.7875 14.2500
" />
<path d="M12.1300 5.6675
L12.1300 4.0500
" />
<path d="M15.6931 19.8900
L19.1970 16.3861
" />
<path d="M8.0500 19.4011
L8.5389 19.8900
" />
<path d="M8.0500 17.8500
L8.0500 19.4011
" />
<path d="M15.0500 8.5875
L12.1300 5.6675
" />
<path d="M17.6747 2.5900
L13.5900 2.5900
" />
<path d="M8.5389 19.8900
L15.6931 19.8900
" />
<path d="M19.1970 16.3861
L19.1970 4.1123
" />
<path d="M19.1970 4.1123
L17.6747 2.5900
" />
<path d="M13.5900 2.5900
L12.1300 4.0500
" />
<path d="M7.8500 2.3100
L9.5900 4.0500
" />
<path d="M7.2500 17.8500
L7.2500 19.4200
" />
<path d="M7.2500 19.4200
L6.7500 19.9200
" />
<path d="M12.0500 8.5875
L9.5900 6.1275
" />
<path d="M5.5400 19.9200
L2.5600 16.9400
" />
<path d="M6.7500 19.9200
L5.5400 19.9200
" />
<path d="M2.5600 16.9400
L2.5600 3.1600
" />
<path d="M2.5600 3.1600
L3.4100 2.3100
" />
<path d="M3.4100 2.3100
L7.8500 2.3100
" />
<path d="M9.5900 6.1275
L9.5900 4.0500
" />
<path style="fill:none; 
stroke:#D0D2CD; stroke-width:0.0500; stroke-opacity:1; 
stroke-linecap:round; stroke-linejoin:round;fill:none"
d="M 0.0500,0.0500
22.0500,0.0500
22.0500,22.0500
0.0500,22.0500
Z" /> 
</g> 
</svg>
